<?xml version="1.0" encoding="UTF-8" standalone="no"?>
<svg width="33px" height="41px" viewBox="0 0 33 41" version="1.1" xmlns="http://www.w3.org/2000/svg" xmlns:xlink="http://www.w3.org/1999/xlink">
    <!-- Generator: Sketch 49.1 (51147) - http://www.bohemiancoding.com/sketch -->
    <title>Logo</title>
    <desc>Created with Sketch.</desc>
    <defs></defs>
    <g id="Homepage" stroke="none" stroke-width="1" fill="none" fill-rule="evenodd">
        <g id="Homepage-Mobile" transform="translate(-20.000000, -20.000000)" fill="#FFFFFF">
            <g id="Header" transform="translate(20.000000, 16.000000)">
                <g id="Logo" transform="translate(0.000000, 4.000000)">
                    <path d="M16.512619,0.0741600186 C21.7885964,0.0742340306 27.0644993,0.0742340306 32.3404767,0.0743080426 C32.9665828,0.0743080426 32.9667318,0.0746781025 32.9668063,0.678467954 L32.9668063,11.8160149 C32.9668063,12.3249954 32.9631562,12.3294361 32.4415625,12.3298802 C31.5352916,12.3306203 30.6287228,12.3152999 29.7230479,12.3368373 C29.358707,12.3454967 29.2579937,12.2168639 29.259558,11.8676753 C29.2711788,9.26526555 29.2661133,6.66278179 29.2655919,4.06029802 C29.2654429,3.50091537 29.2111381,3.44651655 28.65133,3.44651655 C20.5325851,3.4462205 12.4139147,3.44614649 4.29509526,3.44651655 C3.73394628,3.44651655 3.69565734,3.48404063 3.69565734,4.0286949 C3.69535937,12.2061322 3.69535937,20.3835694 3.69565734,28.5610067 C3.69565734,29.1035886 3.73886275,29.1472557 4.29248804,29.1473297 C12.4235986,29.1479958 20.5547837,29.1480698 28.6858944,29.1477738 C29.1974316,29.1477738 29.2649214,29.081311 29.2651449,28.5721085 C29.2662623,26.1300087 29.2653684,23.6878349 29.2659643,21.2457351 C29.2661133,20.7300196 29.273488,20.7236545 29.7819711,20.7235065 C30.688242,20.7232845 31.5945874,20.732758 32.5005603,20.7186957 C32.828549,20.7135889 32.9721698,20.8140232 32.9714993,21.1606213 C32.9641246,24.959509 32.9625603,28.7583967 32.9730637,32.5572103 C32.974181,32.9596875 32.7647093,32.9804109 32.4554926,32.9801889 C26.3850569,32.9756001 20.3146212,32.9768583 14.2441856,32.9770063 C13.5717454,32.9770063 13.5467905,33.0014303 13.546716,33.6551042 C13.5466415,35.77651 13.5475354,37.8979899 13.5459711,40.0193957 C13.5455242,40.5852914 13.4745332,40.6237036 12.9772239,40.3418659 C8.78667088,37.9671171 4.59805463,35.5890377 0.401989165,33.2239844 C0.10163702,33.0547189 -0.000268171558,32.8659143 2.97968397e-05,32.5263473 C0.00911783296,21.8945243 0.00740451467,11.2625532 0.00747900677,0.630730218 C0.00747900677,0.0794148702 0.0132893905,0.0740860066 0.573097517,0.0740860066 C5.8862465,0.0740860066 11.19947,0.0740860066 16.512619,0.0741600186" id="Fill-4"></path>
                    <path d="M17.4193666,22.0895089 C15.1354388,22.0895089 12.8515856,22.0898789 10.5676578,22.0891388 C10.0798835,22.0889908 10.0609625,22.0694516 10.0601431,21.59052 C10.0592492,20.9862861 10.0774998,20.381238 10.0532153,19.7778923 C10.0383914,19.4097566 10.1879716,19.3095444 10.5351047,19.3155393 C11.4781747,19.3315999 12.4219896,19.3088783 13.3649851,19.3253829 C13.7279851,19.331748 13.8488113,19.1788392 13.8478429,18.8417886 C13.842405,16.9796468 13.8476939,15.117357 13.8435223,13.2551412 C13.842554,12.8507396 13.7521205,12.7735451 13.3238655,12.7725089 C12.3804975,12.7702146 11.4369806,12.7625913 10.4938361,12.7768757 C10.1774682,12.7816124 10.0428609,12.6854708 10.0545562,12.3550073 C10.0741476,11.8006574 10.0714659,11.2449014 10.0554501,10.6904035 C10.0468835,10.3932454 10.1413395,10.2722357 10.457484,10.2729759 C13.6598993,10.2809692 16.8623892,10.280081 20.0648045,10.274086 C20.343405,10.273568 20.4750325,10.3496523 20.4667639,10.6505111 C20.4508226,11.2297289 20.4520889,11.8099089 20.4665404,12.3892008 C20.4737661,12.6793278 20.362177,12.7793921 20.0731476,12.7758395 C19.1174885,12.7640716 18.1616059,12.7700666 17.2058722,12.7724349 C16.7659219,12.7735451 16.6840551,12.8484453 16.6831612,13.2900008 C16.6792876,15.1275706 16.6793621,16.9651404 16.6833847,18.8027102 C16.684353,19.2598823 16.7478203,19.3180557 17.1955178,19.3187218 C18.7097932,19.3208682 20.2241431,19.3213863 21.738493,19.3202761 C22.2057819,19.31998 22.2606081,19.2630648 22.2623959,18.776954 C22.2652266,18.0123361 22.2741657,17.2474962 22.2585968,16.4831743 C22.252116,16.1625543 22.3655675,16.043173 22.6913214,16.0544228 C23.2492673,16.073814 23.8084795,16.067597 24.3667977,16.0567912 C24.6577639,16.0511663 24.7667458,16.1815014 24.7662244,16.4574181 C24.7629467,18.1962559 24.7610844,19.9352418 24.7677142,21.6740796 C24.7690551,22.0026928 24.6159738,22.0944677 24.3083214,22.0935055 C22.012028,22.0861043 19.7157345,22.0895089 17.4193666,22.0895089" id="Fill-6"></path>
                </g>
            </g>
        </g>
    </g>
</svg>